<svg width="769" height="495" viewBox="0 0 769 495" fill="none" xmlns="http://www.w3.org/2000/svg">
<rect x="5" y="5" width="759" height="485" fill="white" stroke="black" stroke-width="10"/>
<path d="M8.5 12L384.5 388L760.5 12" stroke="black" stroke-width="10"/>
<mask id="path-3-inside-1_1077_471" fill="white">
<path d="M725.416 458.283H592V348H725.416V458.283Z"/>
</mask>
<path d="M725.416 458.283H592V348H725.416V458.283Z" fill="white"/>
<path d="M725.416 458.283V464.283H731.416V458.283H725.416ZM592 458.283H586V464.283H592V458.283ZM592 348V342H586V348H592ZM725.416 348H731.416V342H725.416V348ZM725.416 458.283V452.283H592V458.283V464.283H725.416V458.283ZM592 458.283H598V348H592H586V458.283H592ZM592 348V354H725.416V348V342H592V348ZM725.416 348H719.416V458.283H725.416H731.416V348H725.416Z" fill="black" mask="url(#path-3-inside-1_1077_471)"/>
<path d="M621.5 380C633.872 380 644 390.242 644 403C644 415.758 633.872 426 621.5 426C609.128 426 599 415.758 599 403C599 390.242 609.128 380 621.5 380Z" fill="white" stroke="black" stroke-width="6"/>
<circle cx="696" cy="403" r="23" fill="white" stroke="black" stroke-width="6"/>
<circle cx="630.712" cy="397.712" r="9.71175" fill="white" stroke="black" stroke-width="6"/>
<circle cx="704.712" cy="397.712" r="9.71175" fill="white" stroke="black" stroke-width="6"/>
</svg>
